# AST/ASF file generated using VICON BodyLanguage
# -----------------------------------------------
:version 1.10
:name VICON
:units
  mass 1.0
  length 0.45
  angle deg
:documentation
   .ast/.asf automatically generated from VICON data using
   VICON BodyBuilder and BodyLanguage model FoxedUp or BRILLIANT.MOD
:root
   order TX TY TZ RX RY RZ
   axis XYZ
   position 0 0 0  
   orientation 0 0 0 
:bonedata
  begin
     id 1 
     name lhipjoint
     direction 0.623529 -0.717805 0.309788 
     length 2.23224 
     axis 0 0 0  XYZ
  end
  begin
     id 2 
     name lfemur
     direction 0.34202 -0.939693 0  
     length 7.11402  
     axis 0 0 20  XYZ
    dof rx ry rz
    limits (-160.0 20.0)
           (-70.0 70.0)
           (-60.0 70.0)
  end
  begin
     id 3 
     name ltibia
     direction 0.34202 -0.939693 0   
     length 6.78496   
     axis 0 0 20   XYZ
    dof rx
    limits (-10.0 170.0)
  end
  begin
     id 4 
     name lfoot
     direction 0.125078 -0.343648 0.930732   
     length 1.84054   
     axis -90 7.62852e-016 20   XYZ
    dof rx rz
    limits (-45.0 90.0)
           (-70.0 20.0)
  end
  begin
     id 5 
     name ltoes
     direction 1.53565e-011 -4.21893e-011 1   
     length 0.916474   
     axis -90 7.62852e-016 20   XYZ
    dof rx
    limits (-90.0 20.0)
  end
  begin
     id 6 
     name rhipjoint
     direction -0.564688 -0.757748 0.327026   
     length 2.11457  
     axis 0 0 0  XYZ 
  end
  begin
     id 7 
     name rfemur
     direction -0.34202 -0.939693 0   
     length 7.14609   
     axis 0 0 -20   XYZ
    dof rx ry rz
    limits (-160.0 20.0)
           (-70.0 70.0)
           (-70.0 60.0)
  end
  begin
     id 8 
     name rtibia
     direction -0.34202 -0.939693 0   
     length 6.78101   
     axis 0 0 -20   XYZ
    dof rx
    limits (-10.0 170.0)
 end
 begin
     id 9 
     name rfoot
     direction -0.0992671 -0.272734 0.956955   
     length 1.96168  
     axis -90 -7.62852e-016 -20   XYZ
    dof rx rz
    limits (-45.0 90.0)
           (-20.0 70.0)
  end
  begin
     id 10 
     name rtoes
     direction -1.5356e-011 -4.21891e-011 1   
     length 0.982933   
     axis -90 -7.62852e-016 -20   XYZ
    dof rx
    limits (-90.0 20.0)
  end
  begin
     id 11 
     name lowerback
     direction -0.00596953 0.998668 0.0512524   
     length 1.87557   
     axis 0 0 0   XYZ
    dof rx ry rz
    limits (-20.0 45.0)
           (-30.0 30.0)
           (-30.0 30.0)
  end
  begin
     id 12 
     name upperback
     direction 0.00584879 0.999652 0.0257308   
     length 1.87883   
     axis 0 0 0   XYZ
    dof rx ry rz
    limits (-20.0 45.0)
           (-30.0 30.0)
           (-30.0 30.0)
  end
  begin
     id 13 
     name thorax
     direction 0.010104 0.999947 0.00178881   
     length 1.87779   
     axis 0 0 0   XYZ
    dof rx ry rz
    limits (-20.0 45.0)
           (-30.0 30.0)
           (-30.0 30.0)
  end
  begin
     id 14 
     name lowerneck
     direction 0.0120771 0.995934 -0.0892773   
     length 1.40897   
     axis 0 0 0   XYZ
    dof rx ry rz
    limits (-20.0 45.0)
           (-30.0 30.0)
           (-30.0 30.0)
  end
  begin
     id 15 
     name upperneck
     direction -0.030568 0.999465 -0.0116366   
     length 1.38661   
     axis 0 0 0   XYZ
    dof rx ry rz
    limits (-20.0 45.0)
           (-30.0 30.0)
           (-30.0 30.0)
  end
  begin
     id 16
     name head
     direction -0.0170715 0.999854 -0.00104426  
     length 1.47052  
     axis 0 0 0   XYZ
    dof rx ry rz
    limits (-20.0 45.0)
           (-30.0 30.0)
           (-30.0 30.0)
  end
  begin
     id 17 
     name lclavicle
     direction 0.977763 0.206143 0.038532  
     length 3.02424  
     axis 0 0 0   XYZ
    dof ry rz
    limits (-20.0 10.0)
           (0.0 20.0)
  end
  begin
     id 18 
     name lhumerus
     direction 1 -4.48965e-011 -2.62654e-027   
     length 4.68382   
     axis 180 -30 -90   XYZ
    dof rx ry rz
    limits (-60.0 90.0)
           (-90.0 90.0)
           (-90.0 90.0)
  end
  begin
     id 19
     name lradius
     direction 1 -4.48973e-011 -1.54954e-027   
     length 2.98124   
     axis 180 -30 -90   XYZ
    dof rx
    limits (-10.0 170.0)
  end
  begin
     id 20
     name lwrist
     direction 1 -4.48959e-011 7.20928e-028   
     length 1.49062   
     axis -5.52449e-016 90 90   XYZ
    dof ry
    limits (-180.0 0.0)
 end
  begin
     id 21 
     name lhand
     direction 1 -4.48971e-011 1.44186e-027   
     length 0.707595   
     axis -9.20027e-016 90 90   XYZ
    dof rx rz
    limits (-90.0 90.0)
           (-45.0 45.0)
  end
  begin
     id 22 
     name lfingers
     direction 1 -4.48985e-011 2.88371e-027   
     length 0.570481   
     axis -1.84005e-015 90 90   XYZ
    dof rx
    limits (0.0 90.0)
  end
  begin
     id 23
     name lthumb
     direction 0.707107 -6.34929e-011 0.707107   
     length 0.819101   
     axis -90 45 2.85299e-015   XYZ
    dof rx rz
    limits (-45.0 45.0)
           (-45.0 45.0)
  end
  begin
     id 24 
     name rclavicle
     direction -0.958661 0.284411 -0.00895327   
     length 3.11921  
     axis 0 0 0   XYZ 
    dof ry rz
    limits (-10.0 20.0)
           (-20.0 0.0)
  end
  begin
     id 25 
     name rhumerus
     direction -1 -4.48963e-011 -4.22193e-027  
     length 4.75876   
     axis 180 30 90   XYZ
    dof rx ry rz
    limits (-90.0 60.0)
           (-90.0 90.0)
           (-90.0 90.0)
  end
  begin
     id 26 
     name rradius
     direction -1 -4.48968e-011 -1.07616e-027   
     length 2.93293   
     axis 180 30 90   XYZ
    dof rx
    limits (-10.0 170.0)
  end
  begin
     id 27 
     name rwrist
     direction -1 -4.48965e-011 7.20928e-028   
     length 1.46647   
     axis -5.52449e-016 -90 -90   XYZ
    dof ry
    limits (-180.0 0.0)
  end
  begin
     id 28
     name rhand
     direction -1 -4.48971e-011 1.44186e-027   
     length 0.831748   
     axis -9.20027e-016 -90 -90   XYZ
    dof rx rz
    limits (-90.0 90.0)
           (-45.0 45.0)
  end
  begin
     id 29
     name rfingers
     direction -1 -4.48961e-011 2.88371e-027   
     length 0.670577   
     axis -1.84005e-015 -90 -90   XYZ
    dof rx
    limits (0.0 90.0)
  end
  begin
     id 30
     name rthumb
     direction -0.707107 -6.34929e-011 0.707107   
     length 0.962818   
     axis -90 -45 -2.85299e-015   XYZ
    dof rx rz
    limits (-45.0 45.0)
           (-45.0 45.0)
  end
:hierarchy
  begin
    root lhipjoint rhipjoint lowerback
    lhipjoint lfemur
    lfemur ltibia
    ltibia lfoot
    lfoot ltoes
    rhipjoint rfemur
    rfemur rtibia
    rtibia rfoot
    rfoot rtoes
    lowerback upperback
    upperback thorax
    thorax lowerneck lclavicle rclavicle
    lowerneck upperneck
    upperneck head
    lclavicle lhumerus
    lhumerus lradius
    lradius lwrist
    lwrist lhand lthumb
    lhand lfingers
    rclavicle rhumerus
    rhumerus rradius
    rradius rwrist
    rwrist rhand rthumb
    rhand rfingers
  end

#!OML:ASF E:\id_vita\Project 1\Capture day 1\Session 1\Female.ASF
:FULLY-SPECIFIED
:DEGREES
1
root 48.0138 16.6155 -0.80191 -142.064 -88.963 157.164
lowerback -13.6171 -0.0279191 -5.06224
upperback -7.42764 0.144983 1.14281
thorax -0.238908 0.0765445 4.07095
lowerneck 6.99942 -4.33501 -9.11951
upperneck 2.81797 -6.58052 7.36498
head 0.268921 -3.4701 4.15171
rclavicle -3.03147e-015 7.55382e-015
rhumerus -38.2869 -18.8222 -81.2306
rradius 14.9783
rwrist 34.3771
rhand -12.5222 11.8864
rfingers 7.12502
rthumb 13.5537 -17.6525
lclavicle -3.03147e-015 7.55382e-015
lhumerus -35.0553 23.638 82.5628
lradius 14.1607
lwrist -53.7485
lhand 8.2876 22.4389
lfingers 7.12502
lthumb 33.5004 49.3322
rfemur -20.3685 15.4945 16.5589
rtibia 22.2657
rfoot -2.92679 -20.7488
rtoes -21.9569
lfemur -23.7394 -15.5025 -15.8155
ltibia 27.1223
lfoot -18.5129 9.93986
ltoes -5.73135
2
root 48.0197 16.6161 -0.803984 -151.323 -88.9901 166.379
lowerback -13.6827 -0.0230786 -4.98458
upperback -7.30546 0.154144 1.2519
thorax -0.0746839 0.0771781 4.14355
lowerneck 6.86564 -4.47799 -9.12981
upperneck 2.74896 -6.75403 7.27579
head 0.283469 -3.55163 4.11836
rclavicle 1.1691e-014 1.39149e-015
rhumerus -38.1063 -18.8984 -81.1554
rradius 14.8365
rwrist 35.5628
rhand -12.6208 11.8251
rfingers 7.12502
rthumb 13.4587 -17.72
lclavicle 1.1691e-014 1.39149e-015
lhumerus -34.6025 22.7647 83.3957
lradius 14.4379
lwrist -52.2964
lhand 9.00803 23.424
lfingers 7.12502
lthumb 34.1849 50.1665
rfemur -20.3336 15.6613 16.7254
rtibia 22.2382
rfoot -2.99543 -20.8055
rtoes -21.3545
lfemur -23.7741 -15.4318 -15.6643
ltibia 27.2404
lfoot -18.5388 10.0295
ltoes -6.65829
3
root 48.0275 16.6164 -0.804944 -156.221 -88.9635 171.284
lowerback -13.7417 -0.0301206 -4.967
upperback -7.22902 0.15021 1.3256
thorax 0.0379638 0.07318 4.21123
lowerneck 6.88964 -4.62396 -9.02723
upperneck 2.49429 -6.92747 7.1435
head 0.20344 -3.63201 4.05703
rclavicle -9.30561e-015 1.16289e-014
rhumerus -37.8339 -18.2772 -81.5683
rradius 14.8703
rwrist 35.7188
rhand -12.5094 11.4755
rfingers 7.12502
rthumb 13.5661 -18.0626
lclavicle -9.30561e-015 1.16289e-014
lhumerus -34.3802 22.4093 83.7505
lradius 14.5063
lwrist -52.0768
lhand 8.86671 23.2206
lfingers 7.12502
lthumb 34.0507 49.9931
rfemur -20.3857 15.5493 16.8251
rtibia 22.2369
rfoot -3.04472 -20.642
rtoes -21.4297
lfemur -23.8751 -15.2513 -15.6201
ltibia 27.3472
lfoot -18.5113 10.0303
ltoes -6.78621
4
root 48.0354 16.616 -0.805991 -155.946 -88.9211 170.985
lowerback -13.6834 -0.0496426 -4.989
upperback -7.19615 0.127573 1.33668
thorax 0.0437901 0.0630385 4.23201
lowerneck 6.86561 -4.66077 -9.05219
upperneck 2.41094 -6.97184 7.16931
head 0.186586 -3.65267 4.07173
rclavicle 8.57259e-016 6.95746e-016
rhumerus -37.588 -17.4181 -82.1947
rradius 14.9871
rwrist 35.5198
rhand -12.259 11.3018
rfingers 7.12502
rthumb 13.8074 -18.22
lclavicle 8.57259e-016 6.95746e-016
lhumerus -34.1538 21.9908 84.0958
lradius 14.6501
lwrist -51.2255
lhand 9.12649 23.4812
lfingers 7.12502
lthumb 34.2974 50.1984
rfemur -20.3853 15.4763 16.8204
rtibia 22.1841
rfoot -3.04853 -20.5076
rtoes -21.452
lfemur -23.954 -15.041 -15.7002
ltibia 27.4781
lfoot -18.3947 9.94719
ltoes -6.85402
5
root 48.0387 16.62 -0.806462 -152.089 -88.9037 167.062
lowerback -13.6001 -0.0812968 -5.04937
upperback -7.16392 0.093183 1.31356
thorax 0.0365635 0.0480021 4.23683
lowerneck 6.73072 -4.64711 -9.153
upperneck 2.54027 -6.95653 7.24998
head 0.258183 -3.64602 4.11239
rclavicle 5.34234e-016 -7.55382e-015
rhumerus -37.4551 -17.3001 -82.309
rradius 14.9191
rwrist 35.9633
rhand -12.0064 11.8335
rfingers 7.12502
rthumb 14.0508 -17.6715
lclavicle 5.34234e-016 -7.55382e-015
lhumerus -34.0198 22.0477 84.1053
lradius 14.6585
lwrist -51.3008
lhand 9.48315 23.6106
lfingers 7.12502
lthumb 34.636 50.2509
rfemur -20.2868 15.4169 16.7732
rtibia 22.1032
rfoot -3.73895 -20.6616
rtoes -19.6315
lfemur -24.0116 -15.071 -15.8104
ltibia 27.6213
lfoot -18.2538 9.89925
ltoes -5.08942
6
root 48.04 16.6295 -0.80648 -145.783 -88.9137 160.684
lowerback -13.519 -0.141344 -5.13051
upperback -7.18283 0.0191018 1.28878
thorax -0.0197344 0.0145436 4.24651
lowerneck 6.8242 -4.63537 -9.21799
upperneck 2.57729 -6.956 7.23408
head 0.255469 -3.64878 4.12222
rclavicle 1.6027e-015 -4.67144e-015
rhumerus -37.3804 -16.8308 -82.6024
rradius 14.8804
rwrist 35.9597
rhand -11.8592 11.9772
rfingers 7.12502
rthumb 14.1927 -17.5179
lclavicle 1.6027e-015 -4.67144e-015
lhumerus -34.0648 22.182 84.0028
lradius 14.7556
lwrist -51.8743
lhand 10.269 23.6831
lfingers 7.12502
lthumb 35.3814 50.1492
rfemur -20.1567 15.3128 16.7051
rtibia 22.01
rfoot -5.16456 -20.991
rtoes -15.9291
lfemur -24.09 -15.3268 -15.8958
ltibia 27.7631
lfoot -18.2069 9.86638
ltoes 0.992715
